Coordinates
version=1
nRows=14
nColumns=40
inDegrees=yes

Units are S.I. units (second, meters, Newtons, ...)
Angles are in degrees.

endheader
time	pelvis_tilt	pelvis_list	pelvis_rotation	pelvis_tx	pelvis_ty	pelvis_tz	hip_flexion_r	hip_adduction_r	hip_rotation_r	knee_angle_r	knee_angle_r_beta	ankle_angle_r	subtalar_angle_r	mtp_angle_r	hip_flexion_l	hip_adduction_l	hip_rotation_l	knee_angle_l	knee_angle_l_beta	ankle_angle_l	subtalar_angle_l	mtp_angle_l	lumbar_extension	lumbar_bending	lumbar_rotation	arm_flex_r	arm_add_r	arm_rot_r	elbow_flex_r	pro_sup_r	wrist_flex_r	wrist_dev_r	arm_flex_l	arm_add_l	arm_rot_l	elbow_flex_l	pro_sup_l	wrist_flex_l	wrist_dev_l
     16.44000000	     -7.66826248	     -4.76505815	     11.68029240	      1.01633144	      0.91866272	      0.47498699	      0.42843104	      1.67090357	    -15.97047387	     15.38793955	     15.38793955	     17.47708593	     -3.75517245	     -0.42307175	     28.60452179	     -2.93458498	      4.74099168	     24.40858403	     24.40858403	      6.39913174	    -11.44313742	     -0.26688699	     -7.60624980	      2.06615811	      3.75025822	     60.67560619	    -15.86048610	     -3.05438896	     74.55678569	     44.86784569	      0.00000000	      0.00000000	    -16.67223058	    -13.68003540	     27.65192537	     30.70185744	     42.41838149	      0.00000000	      0.00000000
     16.46342857	     -7.75062921	     -4.61494683	     11.35396603	      1.01783432	      0.91928240	      0.47024818	      0.08995169	      1.04442855	    -16.63683347	     15.50368808	     15.50368808	     16.85308305	     -2.49164213	     -2.07782441	     28.25768684	     -2.61483114	      4.50996123	     24.75634331	     24.75634331	      7.84091136	    -11.27326136	      2.02678098	     -7.50257824	      1.98961324	      3.71576656	     60.86819512	    -15.49259080	     -2.82311200	     72.60278403	     44.95452498	      0.00000000	      0.00000000	    -15.94328244	    -14.00159208	     27.70290851	     30.70665896	     42.58429642	      0.00000000	      0.00000000
     16.48685714	     -7.85671294	     -4.61491880	     11.01639998	      1.01920268	      0.91980129	      0.46581095	     -0.11732451	      0.72373886	    -16.48295634	     15.67884076	     15.67884076	     16.51240284	     -2.43226949	     -2.05425300	     27.87186642	     -2.47253319	      4.28694039	     24.81170783	     24.81170783	      8.25845353	    -11.44180917	      1.95121412	     -7.42252753	      2.11627221	      3.74583606	     60.40677383	    -15.19874882	     -2.68836423	     72.34196290	     44.95766917	      0.00000000	      0.00000000	    -15.13896002	    -14.31676937	     27.58681072	     30.89061636	     42.61787141	      0.00000000	      0.00000000
     16.51028571	     -7.91258701	     -4.54171241	     10.62695595	      1.02048449	      0.92036477	      0.46148499	     -0.32398756	      0.30945267	    -16.31616258	     15.96353590	     15.96353590	     16.21582022	     -2.34214120	     -2.14152540	     27.39417991	     -2.29569795	      3.96634143	     24.82410076	     24.82410076	      8.65694207	    -11.60442245	      1.95053472	     -7.40035735	      2.18355300	      3.87054135	     59.75595939	    -15.03835233	     -2.59813024	     71.74596969	     44.97336773	      0.00000000	      0.00000000	    -14.24093032	    -14.62383453	     27.44574252	     31.12336208	     42.65932917	      0.00000000	      0.00000000
     16.53371429	     -8.02166800	     -4.34666903	     10.18164050	      1.02150175	      0.92081799	      0.45716170	     -0.36985195	     -0.32123566	    -16.24787526	     16.44967909	     16.44967909	     15.86260971	     -2.09435494	     -2.79403190	     26.89861484	     -1.98367948	      3.57440544	     24.73584241	     24.73584241	      9.14500018	    -11.76726855	      2.36862620	     -7.31842799	      2.11784314	      4.35549941	     59.23945335	    -15.38314208	     -2.80811173	     69.73184946	     45.05345565	      0.00000000	      0.00000000	    -13.13609947	    -14.94323343	     27.20463937	     31.45883558	     42.75243043	      0.00000000	      0.00000000
     16.55714286	     -8.10560465	     -4.22898190	      9.73621289	      1.02244866	      0.92114350	      0.45294697	     -0.49323704	     -0.83631176	    -16.16014826	     16.77205002	     16.77205002	     15.40222596	     -1.84087328	     -3.56021857	     26.49086926	     -1.72115448	      3.34220889	     24.81403254	     24.81403254	      9.66310309	    -12.08870429	      2.91276866	     -7.25781992	      2.18157393	      4.47724832	     58.63324492	    -15.22819611	     -2.98702634	     67.51375773	     45.13994067	      0.00000000	      0.00000000	    -12.08264026	    -15.11964138	     26.97115646	     31.69336062	     42.85849945	      0.00000000	      0.00000000
     16.58057143	     -8.11980012	     -4.14274504	      9.29640428	      1.02329859	      0.92137151	      0.44881804	     -0.73388353	     -1.27943476	    -16.03895874	     16.94827144	     16.94827144	     14.81047583	     -1.66304409	     -4.64981081	     26.14818266	     -1.49177868	      3.12152588	     25.12359583	     25.12359583	     10.29070641	    -12.50535100	      3.76272863	     -7.26995240	      2.33914526	      4.19717385	     57.99511076	    -14.52261434	     -3.28436013	     64.73702809	     45.25341628	      0.00000000	      0.00000000	    -11.25595460	    -15.18225154	     26.56851333	     31.73755951	     43.03771211	      0.00000000	      0.00000000
     16.60400000	     -8.14124915	     -4.05655950	      8.80958891	      1.02406958	      0.92135429	      0.44475634	     -0.92769201	     -1.73026809	    -15.74132277	     17.20653321	     17.20653321	     14.62471402	     -1.40874478	     -5.03281664	     25.80910751	     -1.25908930	      2.93678417	     25.39996147	     25.39996147	     10.70849615	    -13.01863156	      4.02831338	     -7.31289816	      2.52370641	      4.43242774	     56.68740536	    -14.66555408	     -3.50974662	     62.85396620	     45.32401229	      0.00000000	      0.00000000	     -9.97840017	    -15.25487220	     26.20044618	     32.08661041	     43.14861011	      0.00000000	      0.00000000
     16.62742857	     -8.14633061	     -3.98627864	      8.29467543	      1.02471384	      0.92108441	      0.44074513	     -1.11321545	     -2.19685086	    -15.56032198	     17.48438408	     17.48438408	     14.45949562	     -1.02466845	     -5.48333636	     25.56338812	     -1.01150240	      2.83219376	     25.85305532	     25.85305532	     11.17936925	    -13.79081575	      4.47541784	     -7.34723553	      2.74179478	      4.74404485	     55.30315874	    -14.81297115	     -3.96968084	     60.23594038	     45.42853849	      0.00000000	      0.00000000	     -8.56778690	    -15.22473094	     25.78804936	     32.31301127	     43.27177860	      0.00000000	      0.00000000
     16.65085714	     -8.09504234	     -3.90843177	      7.77634081	      1.02528258	      0.92059146	      0.43669065	     -1.34450194	     -2.69418550	    -15.38683527	     17.76701305	     17.76701305	     14.17808348	     -0.58141429	     -6.47376384	     25.38886094	     -0.72823775	      2.81233203	     26.56562523	     26.56562523	     12.10468597	    -14.51580555	      5.91300831	     -7.40970352	      3.03927971	      4.32612130	     54.51837771	    -13.66766006	     -5.26754145	     55.61449876	     45.63767923	      0.00000000	      0.00000000	     -7.29751459	    -14.86503805	     24.88953108	     31.80028691	     43.55743410	      0.00000000	      0.00000000
     16.67428571	     -8.03402911	     -3.88762658	      7.20575863	      1.02579321	      0.91966578	      0.43281416	     -1.43172616	     -3.16020600	    -15.03834064	     18.33133711	     18.33133711	     14.21105966	     -0.26920084	     -6.83742539	     25.32276480	     -0.54291463	      2.69430299	     27.43672914	     27.43672914	     12.61231127	    -15.38222516	      6.04702204	     -7.54685454	      3.36558881	      4.79386905	     52.36291783	    -14.15323338	     -5.62076923	     53.44048043	     45.71819245	      0.00000000	      0.00000000	     -5.68038824	    -14.80603497	     24.44647450	     32.33875441	     43.66951813	      0.00000000	      0.00000000
     16.69771429	     -7.88968121	     -3.81142175	      6.62136941	      1.02624776	      0.91860766	      0.42888832	     -1.52403625	     -3.74650299	    -14.75980263	     19.04316398	     19.04316398	     14.02592830	      0.10916518	     -8.14078616	     25.23496357	     -0.25877917	      2.68393794	     28.47757059	     28.47757059	     13.73892919	    -16.19910351	      7.72359011	     -7.72253871	      3.68995182	      4.70821554	     51.07073515	    -13.47210001	     -7.41314278	     48.45696095	     45.95766280	      0.00000000	      0.00000000	     -3.89775993	    -14.34816908	     23.63781285	     31.65972404	     43.91921194	      0.00000000	      0.00000000
     16.72114286	     -7.56253861	     -3.86550387	      6.05079447	      1.02689159	      0.91757175	      0.42509978	     -1.73166094	     -4.14723677	    -14.26063741	     19.90023639	     19.90023639	     14.05220143	      0.24930967	     -8.45452539	     24.90100132	     -0.19619089	      2.53632782	     29.36448417	     29.36448417	     14.30693694	    -16.86196743	      7.52756492	     -8.19378792	      4.21386130	      4.32433922	     48.40272222	    -13.00117136	     -7.38730949	     47.18131618	     45.98650480	      0.00000000	      0.00000000	     -2.45366417	    -14.24065960	     23.47974319	     32.15685453	     43.96715716	      0.00000000	      0.00000000
     16.74457143	     -7.60911406	     -3.80152450	      5.37891943	      1.02677732	      0.91543256	      0.42137688	     -0.84240733	     -4.94017479	    -13.64501325	     21.95194979	     21.95194979	     13.32928064	     -0.31639474	    -11.99120106	     25.33184711	      0.08284760	      2.43048552	     30.93911005	     30.93911005	     16.02183142	    -17.45024851	     10.11885201	     -8.13489904	      4.51647453	      5.09763944	     46.88770819	    -13.22498340	    -10.38142387	     40.61163966	     46.34889684	      0.00000000	      0.00000000	      0.17977817	    -13.61737634	     22.77462629	     31.35092070	     44.20945228	      0.00000000	      0.00000000
